<?xml version="1.0" standalone="no"?><!DOCTYPE svg PUBLIC "-//W3C//DTD SVG 1.1//EN" "http://www.w3.org/Graphics/SVG/1.1/DTD/svg11.dtd">
<svg class="icon" height="32" width="32" viewBox="0 0 1024 1024" version="1.1" xmlns="http://www.w3.org/2000/svg">
  <path
      d="M1004.544 465.92c-36.864-18.944-79.872-22.528-119.296-10.752-7.68-40.96-30.72-77.312-64.512-101.376l-12.8-10.24-10.752 12.288c-20.48 27.648-29.696 61.952-25.088 96.256 1.536 23.552 10.24 46.08 24.064 64.512-11.264 6.144-22.528 11.264-34.816 15.36-23.04 7.68-47.104 11.264-71.68 11.776H13.312l-1.536 15.36C6.656 609.28 14.848 660.48 35.84 706.56l9.216 18.432 1.024 1.536C109.568 831.488 236.544 885.76 357.888 885.76c235.52 0 414.208-112.128 503.296-328.192 59.392 3.072 120.32-14.336 149.504-69.632l7.168-14.336-13.312-7.68zM210.432 739.328c-29.184-1.024-52.224-25.088-51.2-54.272 1.024-29.184 25.088-52.224 54.272-51.2 28.672 1.024 51.2 24.064 51.2 52.736-0.512 29.184-24.576 53.248-54.272 52.736z"
      fill="#1EB6F8"/>
  <path
      d="M210.432 658.432c-15.36 0.512-27.648 13.312-27.136 28.672 0.512 15.36 13.312 27.648 28.672 27.136 14.848-0.512 27.136-12.8 27.136-27.648 0-15.872-12.8-28.16-28.672-28.16M64 415.744h96.256V512H64V415.744z m128 0h96.256V512H192V415.744z m0-128h96.256V384H192V287.744z m128 0h96.256V384H320V287.744z m0 128h96.256V512H320V415.744z m128 0h96.256V512H448V415.744z m128 0h96.256V512h-96.256V415.744z m-128-128h96.256V384H448V287.744z m0-128h96.256V256H448V159.744z"
      fill="#1A9AC6"/>
</svg>